<svg xmlns="http://www.w3.org/2000/svg" viewBox="0 0 864 1316"><path fill="#f6f6f2" d="M36.2,1282.0C35.0,1281.5 33.6,1280.2 33.2,1279.1C32.8,1278.0 32.5,1077.9 32.5,834.3C32.5,415.3 32.6,390.8 34.3,378.5C35.3,371.4 36.5,363.2 37.0,360.5C37.6,357.8 38.5,352.6 39.1,349.0C39.8,345.4 41.1,339.9 42.1,336.7C43.2,333.6 44.0,330.1 44.0,329.1C44.0,328.0 44.8,324.8 45.9,321.8C46.9,318.9 48.8,313.1 50.0,309.0C53.4,297.9 55.4,292.6 62.3,275.5C64.6,269.7 71.7,254.2 73.0,252.0C73.5,251.2 75.6,247.3 77.5,243.5C79.5,239.7 83.5,232.5 86.5,227.6C89.5,222.7 92.0,218.6 92.0,218.4C92.0,218.1 100.5,205.6 105.6,198.5C119.7,178.7 143.9,152.8 166.0,133.9C176.3,125.1 200.8,106.7 205.8,104.0C207.8,102.9 213.1,99.7 217.5,96.8C232.7,87.1 260.4,72.6 276.5,66.0C288.8,60.9 309.8,53.2 316.5,51.3C364.8,37.6 387.0,34.5 439.0,34.6C478.3,34.6 490.5,35.8 528.0,43.5C549.7,47.9 593.9,64.2 620.0,77.5C628.0,81.5 650.4,95.2 661.4,102.7C685.9,119.6 708.3,139.6 731.6,165.6C740.5,175.5 757.3,197.8 764.0,208.5C766.4,212.3 769.3,217.1 770.5,219.0C776.1,227.9 780.3,235.5 786.5,248.0C790.1,255.4 793.5,262.2 793.9,263.0C795.0,265.0 807.4,296.2 809.5,302.0C817.2,323.8 821.1,338.7 825.5,363.8C831.3,396.7 831.0,372.2 831.0,846.8L831.0,1283.0L434.8,1282.9C198.2,1282.9 37.6,1282.5 36.2,1282.0Z"/><path fill="#111" d="M35.9,1281.8C34.8,1281.4 33.6,1280.2 33.2,1279.1C32.8,1278.0 32.5,1077.9 32.5,834.3C32.5,415.3 32.6,390.8 34.3,378.5C35.3,371.4 36.5,363.2 37.0,360.5C37.6,357.8 38.5,352.6 39.1,349.0C39.8,345.4 41.1,339.9 42.1,336.7C43.2,333.6 44.0,330.1 44.0,329.1C44.0,328.0 44.8,324.8 45.9,321.8C46.9,318.9 48.8,313.1 50.0,309.0C53.4,297.9 55.4,292.6 62.3,275.5C64.6,269.7 71.7,254.2 73.0,252.0C73.5,251.2 75.6,247.3 77.5,243.5C79.5,239.7 83.5,232.5 86.5,227.6C89.5,222.7 92.0,218.6 92.0,218.4C92.0,218.1 100.5,205.6 105.6,198.5C119.7,178.7 143.9,152.8 166.0,133.9C176.3,125.1 200.8,106.7 205.8,104.0C207.8,102.9 213.1,99.7 217.5,96.8C232.7,87.1 260.4,72.6 276.5,66.0C288.8,60.9 309.8,53.2 316.5,51.3C364.8,37.6 387.0,34.5 439.0,34.6C478.3,34.6 490.5,35.8 528.0,43.5C549.7,47.9 593.9,64.2 620.0,77.5C628.0,81.5 650.4,95.2 661.4,102.7C685.9,119.6 708.3,139.6 731.6,165.6C740.5,175.5 757.3,197.8 764.0,208.5C766.4,212.3 769.3,217.1 770.5,219.0C776.1,227.9 780.3,235.5 786.5,248.0C790.1,255.4 793.5,262.2 793.9,263.0C795.0,265.0 807.4,296.2 809.5,302.0C817.2,323.8 821.1,338.7 825.5,363.8C827.8,376.9 831.0,405.9 831.0,413.7C831.0,420.3 833.2,420.0 776.6,420.0C732.0,420.0 725.1,419.8 724.0,418.5C723.3,417.6 722.2,410.6 721.4,401.6C720.7,393.2 719.6,383.9 719.1,380.9C718.6,377.9 717.5,371.4 716.6,366.5C715.7,361.6 714.6,356.4 714.1,355.0C713.5,353.6 712.6,350.2 712.1,347.5C710.8,341.0 707.8,331.4 704.0,322.0C703.0,319.5 701.6,315.9 701.0,314.0C700.3,312.1 699.0,308.7 698.0,306.5C697.0,304.3 695.2,300.2 694.0,297.5C692.9,294.8 691.5,291.8 691.0,291.0C690.5,290.2 688.4,286.4 686.4,282.5C684.4,278.6 681.7,273.7 680.4,271.5C679.1,269.3 677.1,265.9 676.0,264.0C658.9,234.9 627.1,202.0 596.0,180.9C592.5,178.5 588.3,175.9 586.8,175.0C540.4,149.6 501.4,137.6 455.5,134.9C435.1,133.7 407.1,134.8 392.0,137.5C387.9,138.2 382.2,139.1 379.5,139.5C359.6,142.0 324.3,154.2 295.6,168.6C281.7,175.6 249.0,197.8 237.1,208.4C235.2,210.1 231.1,213.8 228.1,216.6C225.0,219.4 221.3,222.8 219.8,224.1C218.4,225.4 214.8,229.2 212.0,232.5C209.1,235.8 205.3,240.1 203.6,242.0C201.1,244.7 190.1,258.5 186.3,263.5C184.9,265.4 179.6,273.8 176.0,280.0C174.9,281.9 173.1,284.9 172.0,286.5C170.9,288.1 169.1,291.3 168.0,293.5C166.9,295.7 165.6,298.2 165.1,299.0C163.4,301.6 156.0,318.0 156.0,319.1C156.0,319.7 155.3,321.4 154.5,322.8C152.8,325.9 150.4,332.4 148.4,339.5C147.6,342.2 146.3,345.9 145.5,347.7C144.7,349.4 144.0,351.6 144.0,352.7C144.0,353.7 143.1,357.2 142.1,360.5C139.2,369.3 137.6,378.2 134.5,402.6C133.3,412.5 133.0,428.6 133.1,495.1C133.1,540.9 133.6,581.7 134.2,590.0C134.7,598.0 135.5,644.1 135.9,692.5L136.5,780.5L418.6,781.0C646.8,781.4 701.0,781.7 702.2,782.8C703.6,783.9 703.8,789.2 703.8,825.1C703.8,863.0 703.6,866.2 702.0,868.3C700.2,870.5 700.1,870.5 663.3,870.6C643.1,870.6 625.5,870.9 624.4,871.3C623.2,871.7 620.2,874.8 617.7,878.3C615.1,881.7 611.9,885.9 610.4,887.5C609.0,889.1 604.1,895.0 599.7,900.5C595.3,906.0 590.9,911.3 589.9,912.2C589.0,913.1 580.0,924.1 569.9,936.7C559.9,949.2 550.9,960.3 549.9,961.2C548.9,962.2 546.9,964.6 545.3,966.7C543.8,968.8 542.2,970.7 541.9,971.0C541.6,971.3 535.5,978.7 528.4,987.5C505.3,1016.3 492.4,1032.0 482.1,1043.9C479.6,1046.8 475.7,1051.6 473.5,1054.5C469.8,1059.3 463.3,1067.1 449.6,1083.0C446.3,1086.8 444.0,1090.5 443.9,1092.0C443.4,1103.1 444.2,1182.6 444.8,1183.2C445.3,1183.7 521.5,1184.0 614.3,1184.0C781.9,1184.0 783.0,1184.0 785.0,1186.0C786.9,1187.9 787.0,1189.3 787.0,1233.3C787.0,1276.0 786.9,1278.8 785.2,1280.3C783.5,1281.9 755.9,1282.0 410.6,1282.3C205.6,1282.4 37.0,1282.2 35.9,1281.8ZM398.0,1182.1C398.6,1180.8 399.0,1164.3 399.0,1135.2L399.0,1090.3L394.0,1083.4C391.2,1079.6 387.1,1074.0 384.9,1071.0C382.7,1068.0 376.6,1059.7 371.4,1052.5C366.2,1045.3 357.8,1034.0 352.8,1027.3C347.7,1020.5 338.3,1007.8 332.0,999.0C325.7,990.1 317.7,979.2 314.3,974.7C310.8,970.2 306.2,964.0 304.0,961.0C296.0,950.2 288.0,939.4 282.0,931.5C274.8,921.9 252.0,891.0 250.2,888.4C244.1,879.3 238.6,872.4 236.8,871.4C235.1,870.5 222.1,870.1 186.5,870.0C146.0,870.0 138.2,870.2 136.5,871.4C134.5,872.8 134.5,874.3 134.8,1026.7C135.0,1111.3 135.4,1181.3 135.6,1182.2C136.1,1183.9 143.2,1184.0 266.5,1184.0C394.4,1184.0 396.9,1184.0 398.0,1182.1ZM425.9,1050.8C426.5,1050.1 429.3,1046.6 432.2,1043.0C435.0,1039.4 437.7,1036.3 438.0,1036.0C438.4,1035.7 446.3,1026.0 455.5,1014.5C464.7,1003.0 472.8,993.0 473.5,992.5C474.1,992.0 477.0,988.4 480.0,984.5C482.9,980.6 486.9,975.7 488.9,973.5C494.4,967.3 498.9,961.7 510.0,947.5C515.5,940.4 520.8,933.6 521.7,932.5C522.7,931.4 527.4,925.6 532.3,919.5C537.2,913.5 541.8,908.1 542.5,907.5C543.2,907.0 548.4,900.6 554.0,893.5C559.7,886.4 565.7,879.2 567.2,877.5C572.2,872.4 571.0,871.6 557.5,871.0C548.6,870.6 294.1,870.5 289.8,870.9C287.7,871.1 289.8,875.1 298.1,886.2C308.6,900.3 314.9,908.8 320.3,916.3C327.7,926.4 351.9,959.5 353.8,962.0C358.6,968.3 376.1,991.8 378.0,994.5C379.1,996.1 382.4,1000.6 385.3,1004.5C388.1,1008.4 392.1,1013.9 394.1,1016.8C396.1,1019.7 403.0,1028.8 409.5,1037.0C421.1,1051.7 423.5,1053.7 425.9,1050.8ZM401.5,736.5C383.6,733.1 373.9,729.9 358.8,722.5C349.1,717.8 348.3,717.3 341.6,712.7C339.3,711.2 335.9,708.9 333.9,707.6C321.4,699.3 299.0,673.1 291.6,658.0C287.5,649.8 282.6,635.7 279.9,624.8C276.6,611.4 275.0,586.7 277.3,583.6C278.7,581.8 281.8,581.5 310.5,580.0C321.5,579.4 334.8,578.5 340.0,578.0C345.2,577.5 360.8,576.4 374.5,575.5C411.8,573.2 491.4,567.9 515.5,566.0C522.6,565.5 539.5,564.5 552.9,563.9C575.2,562.8 577.4,562.8 578.5,564.3C580.1,566.6 581.1,593.2 579.9,606.0C579.5,611.7 578.4,618.4 577.6,620.9C576.8,623.4 575.9,627.3 575.5,629.4C575.1,631.6 574.2,634.3 573.4,635.4C572.6,636.5 572.0,638.3 572.0,639.4C572.0,641.3 570.7,644.4 565.0,656.0C560.0,666.3 557.4,670.3 551.1,678.0C537.6,694.1 525.1,705.8 514.9,711.9C507.2,716.5 496.5,722.5 495.5,722.9C495.0,723.0 492.7,724.0 490.5,725.0C481.0,729.4 461.8,734.9 447.4,737.4C434.5,739.7 416.4,739.3 401.5,736.5ZM442.8,704.5C460.7,702.0 472.9,697.6 490.5,687.6C503.0,680.5 512.6,671.8 522.3,658.9C527.4,651.9 536.0,637.9 536.0,636.5C536.0,636.1 536.7,634.4 537.5,632.7C540.7,625.8 543.8,612.3 543.9,604.7C544.0,601.1 543.6,599.8 542.3,599.3C540.7,598.7 507.2,600.4 467.0,603.0C431.4,605.4 419.3,606.1 401.0,607.0C390.3,607.6 369.8,608.9 355.4,610.0C341.0,611.1 326.6,612.0 323.3,612.0C318.5,612.0 316.9,612.4 315.5,614.0C313.9,615.8 313.8,616.6 314.8,619.3C315.4,621.1 316.2,624.3 316.6,626.5C317.0,628.7 319.0,634.2 321.0,638.7C328.3,654.4 339.1,668.8 350.7,678.2C357.4,683.6 374.6,694.1 379.2,695.5C380.4,695.9 383.1,697.1 385.0,698.1C386.9,699.2 389.3,700.0 390.2,700.0C391.2,700.0 393.7,700.7 395.9,701.6C400.0,703.2 417.9,705.7 427.0,705.9C430.0,705.9 437.1,705.3 442.8,704.5ZM544.4,517.4C519.2,513.7 499.5,505.3 483.3,491.1C471.4,480.8 461.7,464.4 459.1,450.5C458.6,447.8 457.7,444.2 457.1,442.7C455.4,438.2 455.7,403.9 457.4,401.4C458.8,399.5 461.0,399.5 566.7,399.7C668.7,399.9 674.6,400.0 675.8,401.7C676.9,403.1 677.1,407.7 676.7,423.0C676.3,440.3 676.0,443.4 673.7,450.5C671.3,458.3 668.7,464.9 666.9,468.0C666.4,468.8 665.4,470.6 664.8,472.0C661.3,479.1 648.3,492.5 638.6,498.7C633.8,501.9 622.7,507.6 616.0,510.3C597.4,518.0 568.0,520.9 544.4,517.4ZM586.0,488.9C604.8,486.8 619.4,480.0 631.6,467.5C641.0,457.8 643.6,452.5 647.2,435.3C649.1,426.3 656.3,427.0 567.5,427.0C499.0,427.0 489.1,427.2 488.0,428.5C486.1,430.8 487.2,444.5 489.8,450.2C491.0,452.8 492.0,455.2 492.0,455.5C492.0,458.6 505.9,473.5 512.1,477.0C533.7,489.3 553.2,492.5 586.0,488.9ZM181.8,481.1C179.9,479.8 179.8,478.6 180.2,449.6C180.6,424.8 181.0,418.3 182.5,412.5C184.7,403.6 189.0,392.0 190.7,389.9C191.4,389.1 192.0,388.0 192.0,387.5C192.0,386.2 198.6,376.7 202.2,373.0C208.4,366.6 217.6,359.4 223.0,356.8C225.9,355.4 248.1,355.5 261.0,356.9C265.7,357.4 274.4,358.4 280.5,359.0C292.3,360.2 311.3,363.2 322.1,365.6C325.8,366.4 332.3,367.7 336.6,368.5C341.0,369.3 348.6,370.9 353.5,372.0C358.4,373.2 366.0,374.9 370.2,375.8C380.9,378.2 382.9,379.9 387.3,391.1C394.2,408.5 395.4,417.6 395.6,449.8C395.7,474.5 395.5,478.4 394.1,480.0C392.5,481.9 389.3,482.0 288.1,482.2C201.1,482.5 183.4,482.3 181.8,481.1ZM365.0,453.2C367.1,451.5 367.3,450.5 367.4,439.1C367.5,425.3 366.9,424.0 360.1,424.0C354.9,424.0 344.9,418.9 341.1,414.4C339.4,412.2 337.3,408.0 336.4,405.0C335.6,402.0 334.6,398.8 334.1,398.0C332.9,395.8 325.1,393.3 315.2,392.1C310.4,391.5 304.5,390.5 302.0,390.0C299.5,389.4 291.4,388.3 284.0,387.5C276.6,386.6 267.1,385.5 263.0,384.9C258.9,384.3 249.9,384.0 243.0,384.2L230.5,384.5L226.6,388.0C221.6,392.6 217.3,399.0 216.0,403.9C215.4,406.1 214.5,408.2 214.0,408.5C213.5,408.8 212.8,411.2 212.5,413.8C212.1,416.4 211.2,420.5 210.5,423.0C209.6,425.6 209.0,432.7 208.9,439.9C208.7,450.9 208.9,452.4 210.5,453.6C212.0,454.8 226.0,455.0 287.6,455.0C358.8,455.0 362.9,454.9 365.0,453.2Z"/></svg>