<svg xmlns="http://www.w3.org/2000/svg" viewBox="0 0 864 1316"><path fill="#f6f6f2" d="M32.6,1281.4C31.1,1280.0 31.0,1240.3 31.2,833.2L31.5,386.5L33.8,373.0C36.1,359.3 39.2,344.1 41.2,336.0C41.8,333.5 42.9,329.0 43.6,326.0C44.3,323.0 45.6,318.7 46.4,316.5C47.2,314.3 47.9,311.8 48.0,311.0C48.0,309.4 50.2,303.4 58.1,283.8C63.1,271.3 75.6,246.0 80.6,238.3C88.1,226.7 89.5,224.5 90.0,224.0C90.6,223.5 97.5,213.3 99.5,210.2C100.0,209.3 105.7,202.0 112.2,194.0C124.0,179.3 143.7,159.0 156.5,148.4C160.3,145.2 163.7,142.3 164.0,141.9C164.3,141.5 168.6,138.0 173.5,134.1C184.5,125.4 183.9,125.9 187.0,123.8C188.4,122.8 192.0,120.3 195.0,118.1C198.0,115.8 202.1,113.1 204.0,112.0C205.9,110.9 208.7,109.2 210.2,108.2C211.6,107.3 215.8,104.7 219.5,102.5C223.2,100.3 227.8,97.5 229.8,96.3C237.4,91.7 254.0,83.2 266.0,77.8C268.5,76.7 272.2,74.9 274.2,73.9C276.2,72.8 278.4,72.0 279.1,72.0C279.7,72.0 282.1,71.2 284.4,70.1C288.7,68.2 290.4,67.6 304.0,62.9C320.4,57.3 324.5,56.0 326.2,56.0C327.2,56.0 330.1,55.3 332.7,54.4C338.7,52.3 353.7,49.2 375.5,45.6C388.1,43.5 434.8,40.6 443.9,41.4C448.1,41.7 460.1,42.7 470.5,43.5C480.9,44.3 491.1,45.4 493.0,45.9C494.9,46.4 499.0,47.1 502.0,47.5C505.0,47.8 511.3,48.9 516.0,50.0C520.7,51.0 526.5,52.3 529.0,52.9C538.0,54.8 554.7,59.9 564.5,63.6C568.4,65.0 573.3,66.8 575.5,67.6C577.7,68.4 580.9,69.7 582.5,70.5C584.1,71.2 590.2,73.9 596.0,76.4C608.5,81.8 614.1,84.6 627.5,92.4C641.6,100.5 665.9,116.0 668.6,118.5C669.2,119.0 671.2,120.6 673.0,122.0C677.7,125.5 682.3,129.3 683.5,130.6C684.0,131.2 688.1,134.5 692.5,138.0C702.5,145.9 731.7,175.4 738.8,184.6C754.1,204.7 761.0,214.3 764.9,221.0C765.7,222.4 769.1,228.2 772.5,234.0C778.6,244.5 794.9,277.0 798.8,286.5C803.7,298.3 808.0,310.1 810.5,318.5C812.0,323.4 813.8,329.2 814.6,331.3C817.0,337.6 823.7,364.8 825.9,377.1C831.2,406.0 831.0,387.1 831.0,851.8L831.0,1283.0L432.6,1283.0C69.7,1283.0 34.0,1282.9 32.6,1281.4Z"/><path fill="#111" d="M32.3,1281.2C31.2,1280.0 31.0,1205.4 31.2,833.2L31.5,386.5L33.8,373.0C36.1,359.3 39.2,344.1 41.2,336.0C41.8,333.5 42.9,329.0 43.6,326.0C44.3,323.0 45.6,318.7 46.4,316.5C47.2,314.3 47.9,311.8 48.0,311.0C48.0,309.4 50.2,303.4 58.1,283.8C63.1,271.3 75.6,246.0 80.6,238.3C88.1,226.7 89.5,224.5 90.0,224.0C90.6,223.5 97.5,213.3 99.5,210.2C100.0,209.3 105.7,202.0 112.2,194.0C124.0,179.3 143.7,159.0 156.5,148.4C160.3,145.2 163.7,142.3 164.0,141.9C164.3,141.5 168.6,138.0 173.5,134.1C184.5,125.4 183.9,125.9 187.0,123.8C188.4,122.8 192.0,120.3 195.0,118.1C198.0,115.8 202.1,113.1 204.0,112.0C205.9,110.9 208.7,109.2 210.2,108.2C211.6,107.3 215.8,104.7 219.5,102.5C223.2,100.3 227.8,97.5 229.8,96.3C237.4,91.7 254.0,83.2 266.0,77.8C268.5,76.7 272.2,74.9 274.2,73.9C276.2,72.8 278.4,72.0 279.1,72.0C279.7,72.0 282.1,71.2 284.4,70.1C288.7,68.2 290.4,67.6 304.0,62.9C320.4,57.3 324.5,56.0 326.2,56.0C327.2,56.0 330.1,55.3 332.7,54.4C338.7,52.3 353.7,49.2 375.5,45.6C388.1,43.5 434.8,40.6 443.9,41.4C448.1,41.7 460.1,42.7 470.5,43.5C480.9,44.3 491.1,45.4 493.0,45.9C494.9,46.4 499.0,47.1 502.0,47.5C505.0,47.8 511.3,48.9 516.0,50.0C520.7,51.0 526.5,52.3 529.0,52.9C538.0,54.8 554.7,59.9 564.5,63.6C568.4,65.0 573.3,66.8 575.5,67.6C577.7,68.4 580.9,69.7 582.5,70.5C584.1,71.2 590.2,73.9 596.0,76.4C608.5,81.8 614.1,84.6 627.5,92.4C641.6,100.5 665.9,116.0 668.6,118.5C669.2,119.0 671.2,120.6 673.0,122.0C677.7,125.5 682.3,129.3 683.5,130.6C684.0,131.2 688.1,134.5 692.5,138.0C702.5,145.9 731.7,175.4 738.8,184.6C754.1,204.7 761.0,214.3 764.9,221.0C765.7,222.4 769.1,228.2 772.5,234.0C778.6,244.5 794.9,277.0 798.8,286.5C803.7,298.3 808.0,310.1 810.5,318.5C812.0,323.4 813.8,329.2 814.6,331.3C817.3,338.6 824.1,366.7 826.4,380.5C827.7,388.2 829.4,402.1 830.1,411.3C831.2,426.0 831.2,428.2 829.9,429.6C828.6,430.9 821.1,431.1 775.0,431.1C745.7,431.1 721.5,430.8 721.1,430.5C720.8,430.1 720.2,423.3 719.9,415.2C719.5,407.1 718.7,398.5 718.2,396.0C717.6,393.5 716.9,388.6 716.6,385.0C715.2,370.6 706.5,338.0 701.5,328.4C700.7,326.8 700.0,324.9 700.0,324.2C700.0,323.4 699.4,321.6 698.6,320.2C697.8,318.7 696.1,315.0 694.7,312.0C690.9,303.8 687.1,296.1 684.0,290.5C682.4,287.8 680.4,284.1 679.6,282.5C676.1,276.0 668.9,265.1 663.5,258.4C661.3,255.6 658.6,252.0 657.5,250.4C649.9,239.7 628.4,217.1 617.5,208.3C607.6,200.3 591.5,189.5 578.5,182.1C565.0,174.4 543.4,164.0 541.0,164.0C540.3,164.0 538.6,163.3 537.2,162.5C530.6,158.8 507.9,152.2 491.5,149.1C466.7,144.4 467.6,144.5 431.0,144.5C401.0,144.5 394.4,144.8 388.5,146.2C384.6,147.1 379.2,148.2 376.5,148.5C373.8,148.9 369.5,149.8 367.0,150.5C364.5,151.3 360.5,152.4 358.0,153.0C347.7,155.6 342.4,157.2 340.5,158.1C339.4,158.6 336.5,159.6 334.0,160.4C327.4,162.5 320.9,164.9 317.5,166.4C315.9,167.2 311.8,169.0 308.5,170.5C305.2,172.0 301.8,173.6 301.0,174.1C300.2,174.6 298.8,175.3 298.0,175.7C288.9,179.6 254.9,201.1 245.0,209.0C213.3,234.6 188.0,263.4 167.3,297.5C165.2,301.0 156.3,319.4 155.5,322.0C155.1,323.4 154.1,325.4 153.4,326.5C152.6,327.6 152.0,329.3 152.0,330.3C152.0,331.3 151.1,333.8 150.0,336.0C148.9,338.2 148.0,341.0 148.0,342.2C148.0,343.5 147.3,345.8 146.5,347.3C145.7,348.8 144.8,351.8 144.4,353.8C144.1,355.8 143.0,360.2 142.0,363.5C137.5,378.4 135.8,392.6 135.1,422.0C134.3,453.7 135.4,548.6 137.1,599.5C137.7,617.6 138.4,664.5 138.7,703.5C139.0,749.2 139.6,774.9 140.2,775.8C141.0,776.7 198.7,777.0 422.6,777.0C677.0,777.0 704.0,777.2 705.4,778.6C706.8,779.9 707.0,785.3 707.0,821.9C707.0,854.0 706.7,864.0 705.7,865.4C704.6,866.9 701.2,867.1 663.0,867.1C631.6,867.0 621.1,867.3 619.9,868.3C619.0,869.0 613.6,875.8 607.8,883.5C602.0,891.2 596.4,898.4 595.4,899.5C593.7,901.3 584.2,912.9 582.2,915.5C581.8,916.1 580.2,918.3 578.5,920.5C576.9,922.7 569.5,932.2 562.0,941.6C533.6,977.6 520.3,994.5 516.1,1000.4C511.7,1006.4 504.9,1015.2 500.9,1019.9C499.0,1022.2 488.8,1035.1 462.9,1068.0C456.2,1076.5 450.1,1085.0 449.4,1086.8C448.2,1089.4 448.0,1098.4 448.3,1135.8C448.5,1161.0 449.0,1182.1 449.4,1182.8C449.9,1183.7 488.8,1184.0 620.9,1184.0C752.3,1184.0 791.9,1184.3 792.8,1185.2C793.7,1186.1 794.0,1198.1 794.0,1233.2C794.0,1278.2 793.9,1280.0 792.1,1281.0C790.8,1281.7 668.3,1282.1 411.9,1282.2C96.9,1282.5 33.4,1282.3 32.3,1281.2ZM401.8,1182.8C402.7,1181.9 403.0,1169.7 403.0,1134.3L403.0,1086.9L392.8,1072.7C382.3,1058.0 373.9,1046.7 360.8,1029.5C356.6,1024.0 351.7,1017.4 349.8,1014.8C327.3,983.4 316.4,968.5 312.4,963.3C309.7,960.0 303.0,951.0 297.5,943.5C292.0,936.0 283.7,924.8 279.1,918.7C274.6,912.5 268.3,904.1 265.2,900.0C248.3,877.2 242.5,869.8 240.7,868.5C238.9,867.2 230.8,867.0 187.9,867.0C143.3,867.0 137.1,867.2 136.0,868.6C134.9,869.8 134.7,900.1 134.7,1026.0C134.8,1111.7 135.1,1182.4 135.5,1182.9C136.5,1184.6 400.2,1184.4 401.8,1182.8ZM429.8,1045.2C434.8,1040.0 441.6,1031.5 454.2,1015.0C461.1,1005.9 471.4,992.6 477.1,985.3C482.8,978.1 494.0,963.7 502.0,953.4C510.0,943.2 522.4,927.3 529.5,918.3C536.6,909.2 546.2,897.0 550.8,891.1C555.4,885.3 560.9,878.4 563.1,875.7C570.8,866.7 584.2,867.5 431.2,867.2C299.6,867.0 292.0,867.1 292.0,869.9C292.0,870.3 295.5,875.2 299.8,880.7C304.0,886.2 314.0,899.6 322.0,910.5C330.0,921.4 339.7,934.4 343.6,939.4C347.5,944.4 353.8,953.0 357.7,958.5C361.6,964.0 369.0,974.0 374.1,980.6C379.3,987.3 388.2,999.2 394.0,1007.1C415.0,1035.7 424.7,1048.0 426.3,1048.0C426.8,1048.0 428.4,1046.7 429.8,1045.2ZM283.6,706.5C281.4,704.3 281.4,686.6 283.6,672.1C285.2,661.1 289.4,645.2 291.0,643.6C291.6,643.0 292.0,641.9 292.0,641.1C292.0,640.2 293.8,636.1 295.9,632.0C313.5,597.6 347.8,569.4 385.5,558.2C403.5,552.9 405.0,552.6 425.4,552.2C442.7,551.9 446.8,552.1 456.9,554.0C463.3,555.2 469.9,556.7 471.5,557.5C473.2,558.2 476.1,559.1 478.0,559.5C481.8,560.3 504.7,571.2 509.5,574.5C514.5,577.9 520.6,582.6 530.7,590.9C543.4,601.3 555.5,618.8 565.6,641.5C568.3,647.5 571.8,660.8 573.4,671.0C575.5,684.3 575.6,702.8 573.6,705.6C572.2,707.5 569.4,707.5 428.7,707.8C298.1,708.0 285.1,707.9 283.6,706.5ZM530.4,673.6C534.2,673.3 537.7,672.7 538.3,672.1C539.4,671.0 537.9,665.4 533.2,652.5C524.8,629.9 506.2,609.8 482.0,597.1C467.0,589.3 450.5,584.9 432.9,584.3C419.0,583.7 404.5,585.9 390.5,590.6C383.3,592.9 368.8,600.1 365.9,602.6C365.1,603.4 364.0,604.0 363.6,604.0C363.2,604.0 359.9,606.4 356.2,609.4C337.2,624.7 325.6,642.2 319.4,664.8C316.5,675.7 305.5,674.7 422.2,674.3C477.9,674.2 526.6,673.8 530.4,673.6ZM192.0,483.3C191.2,483.0 190.2,482.2 189.8,481.6C189.4,481.0 189.0,472.2 189.0,462.0C189.0,443.2 190.8,423.4 193.7,411.0C194.5,407.4 195.6,402.6 196.1,400.3C196.5,397.9 197.6,394.7 198.5,393.1C199.3,391.4 200.0,389.4 200.0,388.6C200.0,386.9 207.5,372.4 211.4,366.4C215.5,360.3 228.9,345.9 235.4,340.6C244.1,333.7 261.4,325.7 273.3,323.1C296.6,318.1 321.7,322.8 343.3,336.4C358.1,345.6 374.3,364.2 382.8,381.8C393.0,402.5 398.0,429.9 398.0,464.1C398.0,475.0 397.6,480.1 396.8,481.2C395.6,482.6 384.8,482.8 294.5,483.3C238.9,483.6 192.8,483.6 192.0,483.3ZM461.5,482.7C459.6,481.2 459.5,480.1 459.6,456.8C459.9,421.0 462.8,405.9 474.7,380.0C480.8,366.9 493.1,351.1 504.6,341.9C538.7,314.6 585.0,313.9 620.5,340.0C632.3,348.7 647.2,366.7 651.9,378.0C652.5,379.4 653.4,381.2 653.9,382.1C655.0,384.0 659.0,394.6 661.4,401.8C663.0,406.6 664.5,414.5 667.0,430.5C667.5,433.8 668.0,446.2 668.0,458.1C668.0,475.1 667.7,480.0 666.6,481.6C665.2,483.5 662.8,483.5 564.3,483.8C476.0,484.1 463.3,484.0 461.5,482.7ZM366.6,453.5C369.5,449.7 366.6,423.7 361.8,409.5C355.8,392.0 343.0,372.8 331.6,364.2C311.0,348.7 288.7,345.7 267.0,355.7C256.9,360.3 244.8,370.8 238.3,380.5C236.9,382.7 234.9,385.6 234.0,387.0C230.7,391.9 225.7,403.5 223.8,410.5C220.6,422.4 220.2,425.1 219.5,439.1C218.8,451.2 218.9,452.8 220.5,454.3C222.1,456.0 227.0,456.1 293.7,455.8C363.8,455.5 365.2,455.5 366.6,453.5ZM637.0,454.0C639.5,451.5 639.5,448.7 637.1,430.5C635.3,416.8 633.5,409.6 630.0,401.5C625.8,391.9 626.3,392.8 619.2,381.8C608.7,365.7 594.8,355.8 575.9,351.0C566.1,348.5 560.3,348.5 550.5,351.0C526.3,357.2 510.6,372.5 497.5,402.5C492.8,413.2 489.0,432.6 489.0,445.9C489.0,452.5 489.3,454.1 490.8,454.9C491.9,455.6 517.2,455.9 563.8,456.0C633.7,456.0 635.0,456.0 637.0,454.0Z"/></svg>