<svg xmlns="http://www.w3.org/2000/svg" viewBox="0 0 860 1316"><path fill="#f6f6f2" d="M40.0,1282.3C36.5,1282.1 33.1,1281.5 32.5,1281.0C31.0,1279.7 29.6,402.3 31.1,382.0C32.0,369.5 35.9,343.4 37.9,336.5C38.4,334.9 39.1,331.7 39.5,329.5C41.5,316.9 53.8,282.8 64.1,261.2C66.2,256.6 68.0,252.7 68.0,252.5C68.0,251.9 81.3,228.5 82.0,228.0C82.3,227.7 83.7,225.7 85.0,223.5C95.5,205.5 111.8,184.8 132.0,163.7C144.9,150.2 174.0,124.6 184.0,118.0C185.3,117.2 187.5,115.6 188.9,114.4C190.3,113.3 194.2,110.6 197.5,108.4C204.3,104.0 204.2,104.1 214.2,98.2C218.2,95.8 222.8,93.0 224.5,92.0C232.6,86.8 268.1,69.2 274.0,67.5C275.4,67.1 277.4,66.1 278.5,65.4C279.6,64.6 281.1,64.0 282.0,64.0C282.8,64.0 285.2,63.1 287.3,62.0C289.3,60.9 291.5,60.0 292.1,60.0C292.6,60.0 295.0,59.2 297.3,58.1C299.6,57.1 303.0,55.9 304.8,55.5C306.6,55.1 309.3,54.2 310.8,53.4C312.3,52.6 314.2,52.0 315.2,52.0C316.1,52.0 319.2,51.1 322.2,50.1C327.1,48.3 329.7,47.7 343.2,44.9C346.1,44.3 351.4,43.2 355.0,42.4C358.6,41.6 366.9,40.3 373.5,39.5C380.1,38.7 388.6,37.6 392.5,37.0C401.6,35.8 460.4,35.8 469.5,37.0C473.4,37.6 481.8,38.7 488.3,39.5C505.7,41.6 530.0,46.5 541.3,50.1C544.4,51.2 547.8,52.0 548.8,52.0C549.7,52.1 552.3,52.9 554.5,54.0C556.7,55.1 559.2,55.9 560.0,56.0C561.6,56.0 570.1,59.2 576.6,62.1C578.9,63.2 581.3,64.0 581.9,64.0C582.6,64.0 584.8,64.8 586.8,65.9C588.8,66.9 592.1,68.4 594.0,69.3C605.5,74.2 622.9,83.2 636.8,91.5C641.9,94.5 658.1,105.2 659.7,106.5C660.3,107.0 662.5,108.6 664.5,110.0C669.9,113.7 686.7,126.9 693.0,132.4C706.5,144.2 730.9,169.4 737.7,178.5C741.0,183.0 743.1,185.6 747.8,191.5C750.1,194.5 752.0,197.3 752.0,197.8C752.0,198.3 752.6,199.3 753.4,199.9C754.2,200.6 756.8,204.1 759.3,207.8C767.1,219.7 769.2,223.2 772.0,228.5C774.2,232.8 776.7,237.1 780.4,243.5C783.2,248.3 787.5,256.8 790.2,263.0C791.3,265.5 793.0,269.2 794.1,271.2C795.1,273.2 796.0,275.5 796.0,276.2C796.0,276.9 796.9,279.2 798.0,281.3C799.1,283.3 800.0,285.6 800.0,286.2C800.1,286.9 800.9,289.3 802.0,291.5C803.1,293.7 804.0,296.2 804.0,297.0C804.0,297.8 804.6,299.6 805.3,301.0C808.7,307.6 817.6,339.6 820.5,355.7C821.2,359.7 822.1,363.3 822.4,363.8C822.7,364.3 823.6,369.0 824.5,374.1C825.3,379.3 826.5,385.5 827.2,388.0C828.1,391.5 828.5,493.8 828.7,837.8L829.0,1283.0L437.8,1282.8C222.6,1282.7 43.6,1282.5 40.0,1282.3Z"/><path fill="#111" d="M40.0,1282.2C36.5,1282.0 33.1,1281.5 32.5,1281.0C31.0,1279.7 29.6,402.3 31.1,382.0C32.0,369.5 35.9,343.4 37.9,336.5C38.4,334.9 39.1,331.7 39.5,329.5C41.5,316.9 53.8,282.8 64.1,261.2C66.2,256.6 68.0,252.7 68.0,252.5C68.0,251.9 81.3,228.5 82.0,228.0C82.3,227.7 83.7,225.7 85.0,223.5C95.5,205.5 111.8,184.8 132.0,163.7C144.9,150.2 174.0,124.6 184.0,118.0C185.3,117.2 187.5,115.6 188.9,114.4C190.3,113.3 194.2,110.6 197.5,108.4C204.3,104.0 204.2,104.1 214.2,98.2C218.2,95.8 222.8,93.0 224.5,92.0C232.6,86.8 268.1,69.2 274.0,67.5C275.4,67.1 277.4,66.1 278.5,65.4C279.6,64.6 281.1,64.0 282.0,64.0C282.8,64.0 285.2,63.1 287.3,62.0C289.3,60.9 291.5,60.0 292.1,60.0C292.6,60.0 295.0,59.2 297.3,58.1C299.6,57.1 303.0,55.9 304.8,55.5C306.6,55.1 309.3,54.2 310.8,53.4C312.3,52.6 314.2,52.0 315.2,52.0C316.1,52.0 319.2,51.1 322.2,50.1C327.1,48.3 329.7,47.7 343.2,44.9C346.1,44.3 351.4,43.2 355.0,42.4C358.6,41.6 366.9,40.3 373.5,39.5C380.1,38.7 388.6,37.6 392.5,37.0C401.6,35.8 460.4,35.8 469.5,37.0C473.4,37.6 481.8,38.7 488.3,39.5C505.7,41.6 530.0,46.5 541.3,50.1C544.4,51.2 547.8,52.0 548.8,52.0C549.7,52.1 552.3,52.9 554.5,54.0C556.7,55.1 559.2,55.9 560.0,56.0C561.6,56.0 570.1,59.2 576.6,62.1C578.9,63.2 581.3,64.0 581.9,64.0C582.6,64.0 584.8,64.8 586.8,65.9C588.8,66.9 592.1,68.4 594.0,69.3C605.5,74.2 622.9,83.2 636.8,91.5C641.9,94.5 658.1,105.2 659.7,106.5C660.3,107.0 662.5,108.6 664.5,110.0C669.9,113.7 686.7,126.9 693.0,132.4C706.5,144.2 730.9,169.4 737.7,178.5C741.0,183.0 743.1,185.6 747.8,191.5C750.1,194.5 752.0,197.3 752.0,197.8C752.0,198.3 752.6,199.3 753.4,199.9C754.2,200.6 756.8,204.1 759.3,207.8C767.1,219.7 769.2,223.2 772.0,228.5C774.2,232.8 776.7,237.1 780.4,243.5C783.2,248.3 787.5,256.8 790.2,263.0C791.3,265.5 793.0,269.2 794.1,271.2C795.1,273.2 796.0,275.5 796.0,276.2C796.0,276.9 796.9,279.2 798.0,281.3C799.1,283.3 800.0,285.6 800.0,286.2C800.1,286.9 800.9,289.3 802.0,291.5C803.1,293.7 804.0,296.2 804.0,297.0C804.0,297.8 804.6,299.6 805.3,301.0C808.7,307.6 817.6,339.6 820.5,355.7C821.2,359.7 822.1,363.3 822.4,363.8C822.7,364.3 823.6,369.0 824.5,374.1C825.3,379.3 826.4,385.5 826.9,388.0C828.4,394.5 829.5,426.6 828.4,427.3C826.6,428.4 724.2,429.2 722.2,428.1C720.5,427.2 720.2,425.4 719.6,414.3C718.6,395.3 714.7,371.7 709.9,355.1C708.8,351.6 708.0,348.0 708.0,347.1C708.0,345.1 704.4,334.0 701.9,328.2C700.8,325.9 700.0,323.4 700.0,322.7C699.9,322.1 699.1,319.7 698.0,317.5C696.9,315.3 696.1,313.1 696.0,312.6C696.0,311.6 687.2,294.0 681.5,283.5C679.1,279.1 676.7,274.6 676.2,273.5C675.6,272.4 671.8,266.3 667.5,260.1C647.6,230.5 628.0,210.6 594.7,186.3C590.0,182.8 585.8,180.0 585.3,180.0C584.8,180.0 583.8,179.4 583.2,178.8C581.0,176.6 565.9,168.6 552.0,162.3C541.9,157.7 540.5,157.1 534.0,154.7C518.2,148.8 518.9,149.0 488.5,142.5C478.4,140.3 454.7,137.9 438.1,137.3C413.0,136.3 370.2,142.2 348.0,149.6C345.5,150.5 341.7,151.6 339.5,152.1C337.3,152.6 334.1,153.7 332.5,154.4C330.9,155.2 327.0,156.8 324.0,158.0C317.9,160.4 311.6,163.2 305.5,166.0C303.3,167.1 300.4,168.4 299.0,169.0C297.6,169.5 295.8,170.4 295.0,171.0C292.9,172.3 275.5,182.2 272.2,183.9C270.7,184.7 269.3,185.6 269.0,185.9C268.7,186.3 265.1,188.8 261.0,191.5C241.9,204.3 216.7,226.7 199.8,246.0C189.2,258.1 187.2,260.7 179.2,272.5C175.2,278.4 175.7,277.7 167.6,291.5C164.2,297.2 156.0,313.5 156.0,314.5C156.0,314.9 155.2,317.1 154.1,319.4C150.4,327.5 144.0,346.5 144.0,349.3C144.0,350.2 143.3,352.9 142.5,355.4C141.7,357.8 140.3,363.3 139.5,367.6C138.7,372.0 137.6,377.5 137.1,380.0C134.2,393.6 133.9,414.0 135.0,500.8C135.5,549.1 136.5,599.1 137.1,612.0C137.7,624.9 138.3,666.1 138.6,703.4C138.9,751.6 139.3,771.7 140.1,772.6C141.1,773.8 188.2,774.0 427.4,774.0C648.7,774.0 713.9,774.3 714.8,775.2C716.6,777.0 716.5,862.3 714.8,863.8C714.0,864.4 698.0,865.0 671.5,865.2C639.8,865.5 628.9,866.0 627.0,866.9C624.4,868.3 621.2,872.1 602.4,896.4C596.0,904.6 589.9,912.2 588.8,913.4C587.8,914.5 585.0,918.0 582.7,921.0C580.4,924.0 577.7,927.4 576.6,928.5C575.6,929.6 571.0,935.5 566.5,941.5C561.9,947.5 556.0,955.3 553.3,958.7C542.4,972.6 534.3,982.8 529.5,988.6C526.8,991.9 520.7,999.8 516.0,1006.0C507.9,1016.8 488.9,1040.9 464.3,1071.7L453.0,1085.8L453.2,1134.6L453.5,1183.4L456.5,1184.2C458.1,1184.6 535.6,1184.9 628.6,1184.9C721.7,1184.8 798.3,1185.1 798.9,1185.4C800.3,1186.3 800.5,1280.6 799.1,1281.4C798.2,1282.0 51.7,1282.7 40.0,1282.2ZM404.8,1183.9L407.0,1183.0L407.0,1135.3C407.0,1081.8 407.6,1086.5 399.5,1076.5C397.8,1074.3 393.4,1068.2 389.9,1063.0C386.4,1057.8 376.9,1044.7 368.8,1033.9C356.1,1016.8 350.1,1008.5 344.0,999.7C343.2,998.5 337.8,991.3 332.0,983.7C321.5,969.8 317.3,964.2 310.0,954.0C307.8,951.0 301.2,942.1 295.3,934.2C274.8,907.2 262.5,890.7 254.8,880.3C250.6,874.5 246.2,868.7 244.9,867.4L242.7,865.0L189.9,865.0C146.5,865.0 137.0,865.2 136.1,866.4C134.5,868.3 134.5,1181.7 136.1,1183.6C137.0,1184.7 161.7,1184.9 269.8,1184.8C342.8,1184.7 403.5,1184.3 404.8,1183.9ZM433.5,1046.2C434.1,1045.8 436.1,1043.5 438.0,1041.0C439.9,1038.5 442.0,1035.8 442.7,1035.0C447.6,1029.0 487.1,978.3 507.0,952.6C513.9,943.6 520.6,935.0 522.0,933.3C523.4,931.6 525.4,929.0 526.5,927.5C530.8,921.4 567.4,875.3 570.4,872.2C572.9,869.6 573.2,868.6 572.4,867.2C571.3,865.6 562.7,865.5 435.4,865.3C360.7,865.2 298.7,865.4 297.8,865.6C295.4,866.3 295.5,869.8 298.1,872.4C300.2,874.6 313.6,892.1 318.0,898.5C319.4,900.5 320.9,902.7 321.5,903.3C322.1,904.0 324.8,907.6 327.5,911.3C330.2,915.0 333.2,918.9 334.0,920.0C334.8,921.1 336.6,923.6 338.0,925.5C339.4,927.5 345.7,935.8 352.0,943.9C358.3,952.0 364.8,960.6 366.5,963.0C368.1,965.5 369.7,967.7 370.0,968.0C370.3,968.3 371.9,970.5 373.5,972.9C375.2,975.4 379.2,980.9 382.5,985.1C385.8,989.4 389.4,994.1 390.5,995.6C391.6,997.1 395.0,1001.5 398.1,1005.4C401.1,1009.3 406.9,1017.0 410.9,1022.5C427.5,1045.4 430.5,1048.5 433.5,1046.2ZM293.2,586.8C291.9,585.5 291.5,556.4 292.8,554.4C293.9,552.6 580.4,552.0 582.2,553.8C584.2,555.8 584.6,582.8 582.6,585.5C581.2,587.5 579.8,587.5 437.8,587.8C325.7,588.0 294.2,587.8 293.2,586.8ZM188.1,476.3C186.8,475.4 186.4,472.8 186.1,464.3C185.3,437.7 190.6,422.6 206.5,406.5C219.7,393.1 234.2,385.6 260.0,378.7C271.1,375.8 272.3,375.7 293.0,375.6C311.8,375.6 315.8,375.9 325.0,377.9C342.3,381.7 359.7,389.2 371.0,397.6C387.7,410.2 397.8,425.3 401.5,443.1C403.7,453.9 402.8,474.5 400.1,475.9C397.5,477.4 190.0,477.7 188.1,476.3ZM463.6,474.5C461.6,473.5 461.5,472.5 461.2,458.7C461.0,446.7 461.3,442.5 462.9,436.0C467.2,419.0 476.2,405.5 490.5,394.7C504.1,384.5 517.9,378.4 537.5,373.8C546.3,371.8 550.0,371.5 569.0,371.5C587.7,371.5 591.9,371.8 601.5,373.8C627.5,379.3 646.7,389.3 662.4,405.5C667.3,410.6 674.7,421.8 675.6,425.6C675.9,427.2 676.8,429.5 677.6,430.6C680.6,435.5 682.1,463.4 679.8,471.7L678.9,475.0L572.3,475.2C500.7,475.4 465.0,475.2 463.6,474.5ZM336.7,448.4C364.8,447.9 371.0,447.5 371.4,446.4C372.1,444.6 367.0,434.0 362.9,428.6C355.4,418.9 341.8,410.6 326.5,406.3C316.8,403.6 315.8,403.5 292.5,403.5C268.9,403.6 268.4,403.6 260.0,406.4C245.4,411.3 237.3,415.8 229.4,423.5C224.3,428.5 221.4,432.4 219.1,437.2C215.6,444.8 215.5,445.3 217.3,447.2C218.9,448.8 281.9,449.4 336.7,448.4ZM647.9,444.2C650.0,442.5 650.0,442.4 648.3,438.0C640.9,419.3 619.0,404.6 591.7,399.9C580.6,398.0 549.4,399.3 539.5,402.0C517.1,408.1 501.7,419.0 494.9,433.3C491.8,440.0 491.3,442.9 493.2,444.8C494.1,445.7 512.6,446.0 570.1,446.0C640.7,446.0 645.9,445.9 647.9,444.2Z"/></svg>